<svg width="29" height="29" viewBox="0 0 29 29" fill="none" xmlns="http://www.w3.org/2000/svg">
<path d="M0 14.855V22.2825C0 22.6765 0.138627 23.0544 0.385386 23.3329C0.632144 23.6115 0.96682 23.768 1.31579 23.768H2.63158C2.63158 24.95 3.04746 26.0835 3.78774 26.9193C4.52801 27.755 5.53204 28.2245 6.57895 28.2245C7.62585 28.2245 8.62988 27.755 9.37016 26.9193C10.1104 26.0835 10.5263 24.95 10.5263 23.768H18.4211C18.4211 24.95 18.8369 26.0835 19.5772 26.9193C20.3175 27.755 21.3215 28.2245 22.3684 28.2245C23.4153 28.2245 24.4194 27.755 25.1596 26.9193C25.8999 26.0835 26.3158 24.95 26.3158 23.768H27.6316C27.9805 23.768 28.3152 23.6115 28.562 23.3329C28.8087 23.0544 28.9474 22.6765 28.9474 22.2825V4.45651C28.9474 3.27457 28.5315 2.14104 27.7912 1.30528C27.0509 0.469524 26.0469 0 25 0H13.1579C12.111 0 11.107 0.469524 10.3667 1.30528C9.62641 2.14104 9.21053 3.27457 9.21053 4.45651V7.42751H6.57895C5.96614 7.42751 5.36174 7.58859 4.81363 7.898C4.26552 8.2074 3.78874 8.65663 3.42105 9.21011L0.263158 13.9637C0.224673 14.0283 0.193716 14.0982 0.171053 14.1717L0.0921053 14.3351C0.0340343 14.5008 0.00283559 14.6769 0 14.855ZM21.0526 23.768C21.0526 23.4742 21.1298 23.187 21.2744 22.9427C21.419 22.6984 21.6245 22.508 21.8649 22.3956C22.1053 22.2832 22.3699 22.2538 22.6251 22.3111C22.8804 22.3684 23.1148 22.5099 23.2988 22.7176C23.4828 22.9254 23.6082 23.1901 23.6589 23.4782C23.7097 23.7664 23.6836 24.0651 23.5841 24.3365C23.4845 24.608 23.3158 24.84 23.0994 25.0032C22.8831 25.1664 22.6287 25.2535 22.3684 25.2535C22.0195 25.2535 21.6848 25.097 21.438 24.8184C21.1913 24.5399 21.0526 24.162 21.0526 23.768ZM11.8421 4.45651C11.8421 4.06253 11.9807 3.68468 12.2275 3.4061C12.4742 3.12751 12.8089 2.971 13.1579 2.971H25C25.349 2.971 25.6836 3.12751 25.9304 3.4061C26.1772 3.68468 26.3158 4.06253 26.3158 4.45651V20.797H25.2895C24.9195 20.3375 24.4685 19.9703 23.9655 19.719C23.4625 19.4678 22.9185 19.338 22.3684 19.338C21.8184 19.338 21.2744 19.4678 20.7713 19.719C20.2683 19.9703 19.8173 20.3375 19.4474 20.797H11.8421V4.45651ZM9.21053 13.3695H3.94737L5.52632 10.9927C5.64888 10.8082 5.8078 10.6585 5.99051 10.5553C6.17321 10.4522 6.37468 10.3985 6.57895 10.3985H9.21053V13.3695ZM5.26316 23.768C5.26316 23.4742 5.34033 23.187 5.48491 22.9427C5.62949 22.6984 5.83499 22.508 6.07542 22.3956C6.31585 22.2832 6.58041 22.2538 6.83565 22.3111C7.09088 22.3684 7.32533 22.5099 7.50935 22.7176C7.69337 22.9254 7.81868 23.1901 7.86945 23.4782C7.92022 23.7664 7.89417 24.0651 7.79458 24.3365C7.69499 24.608 7.52634 24.84 7.30996 25.0032C7.09358 25.1664 6.83919 25.2535 6.57895 25.2535C6.22998 25.2535 5.8953 25.097 5.64854 24.8184C5.40179 24.5399 5.26316 24.162 5.26316 23.768ZM2.63158 16.3405H9.21053V20.4702C8.43399 19.6867 7.41465 19.2814 6.3746 19.3426C5.33454 19.4038 4.35806 19.9266 3.65789 20.797H2.63158V16.3405Z" fill="black"/>
</svg>
