<svg width="46" height="46" viewBox="0 0 46 46" fill="none" xmlns="http://www.w3.org/2000/svg">
<path d="M43.5417 32.0833H11.4583C10.8505 32.0833 10.2677 31.8419 9.83788 31.4121C9.40811 30.9823 9.16667 30.3995 9.16667 29.7917C9.16667 29.1839 9.40811 28.601 9.83788 28.1712C10.2677 27.7414 10.8505 27.5 11.4583 27.5H35.3833C36.9157 27.5001 38.4041 26.9883 39.6123 26.0458C40.8205 25.1033 41.6792 23.7842 42.0521 22.2979L45.8333 7.425C45.9192 7.08677 45.9266 6.7334 45.8551 6.39185C45.7836 6.0503 45.6351 5.72959 45.4208 5.45417C45.198 5.17168 44.9117 4.94564 44.5852 4.79435C44.2588 4.64306 43.9013 4.57077 43.5417 4.58333H10.9083C10.4355 3.24603 9.56067 2.0877 8.40369 1.26715C7.24671 0.446597 5.86425 0.00398638 4.44583 0H2.29167C1.68388 0 1.10098 0.241443 0.671214 0.671214C0.241443 1.10098 0 1.68388 0 2.29167C0 2.89945 0.241443 3.48235 0.671214 3.91212C1.10098 4.34189 1.68388 4.58333 2.29167 4.58333H4.44583C4.96933 4.56808 5.48226 4.7326 5.89922 5.04949C6.31619 5.36638 6.61203 5.81653 6.7375 6.325L6.875 7.425L10.8396 22.9167C9.01622 22.9987 7.30013 23.8017 6.06884 25.1491C4.83754 26.4964 4.19191 28.2777 4.27396 30.101C4.35601 31.9244 5.15903 33.6405 6.50636 34.8718C7.85369 36.1031 9.63497 36.7487 11.4583 36.6667H11.8708C11.4939 37.7051 11.3728 38.819 11.5178 39.9142C11.6627 41.0094 12.0694 42.0535 12.7034 42.9581C13.3375 43.8628 14.1802 44.6013 15.1602 45.1112C16.1402 45.621 17.2286 45.8872 18.3333 45.8872C19.438 45.8872 20.5265 45.621 21.5065 45.1112C22.4865 44.6013 23.3292 43.8628 23.9632 42.9581C24.5973 42.0535 25.004 41.0094 25.1489 39.9142C25.2938 38.819 25.1727 37.7051 24.7958 36.6667H30.2042C29.8273 37.7051 29.7062 38.819 29.8511 39.9142C29.996 41.0094 30.4027 42.0535 31.0368 42.9581C31.6708 43.8628 32.5135 44.6013 33.4935 45.1112C34.4735 45.621 35.562 45.8872 36.6667 45.8872C37.7714 45.8872 38.8598 45.621 39.8398 45.1112C40.8198 44.6013 41.6625 43.8628 42.2966 42.9581C42.9306 42.0535 43.3373 41.0094 43.4822 39.9142C43.6272 38.819 43.5061 37.7051 43.1292 36.6667H43.5417C44.1495 36.6667 44.7324 36.4252 45.1621 35.9955C45.5919 35.5657 45.8333 34.9828 45.8333 34.375C45.8333 33.7672 45.5919 33.1843 45.1621 32.7545C44.7324 32.3248 44.1495 32.0833 43.5417 32.0833ZM40.6083 9.16667L37.6063 21.175C37.4808 21.6835 37.1849 22.1336 36.768 22.4505C36.351 22.7674 35.8381 22.9319 35.3146 22.9167H15.5375L12.1 9.16667H40.6083ZM18.3333 41.25C17.8801 41.25 17.437 41.1156 17.0602 40.8638C16.6833 40.612 16.3896 40.2541 16.2161 39.8353C16.0427 39.4166 15.9973 38.9558 16.0857 38.5112C16.1741 38.0667 16.3924 37.6584 16.7129 37.3379C17.0334 37.0174 17.4417 36.7991 17.8863 36.7107C18.3308 36.6223 18.7916 36.6677 19.2103 36.8411C19.6291 37.0146 19.987 37.3083 20.2388 37.6852C20.4906 38.062 20.625 38.5051 20.625 38.9583C20.625 39.5661 20.3836 40.149 19.9538 40.5788C19.524 41.0086 18.9411 41.25 18.3333 41.25ZM36.6667 41.25C36.2134 41.25 35.7703 41.1156 35.3935 40.8638C35.0166 40.612 34.7229 40.2541 34.5494 39.8353C34.376 39.4166 34.3306 38.9558 34.419 38.5112C34.5075 38.0667 34.7257 37.6584 35.0462 37.3379C35.3667 37.0174 35.775 36.7991 36.2196 36.7107C36.6641 36.6223 37.1249 36.6677 37.5436 36.8411C37.9624 37.0146 38.3203 37.3083 38.5721 37.6852C38.8239 38.062 38.9583 38.5051 38.9583 38.9583C38.9583 39.5661 38.7169 40.149 38.2871 40.5788C37.8574 41.0086 37.2745 41.25 36.6667 41.25Z" fill="white"/>
</svg>
