<svg width="23" height="23" viewBox="0 0 23 23" fill="none" xmlns="http://www.w3.org/2000/svg">
<path d="M20.8053 19.4447L17.2498 15.918C18.6299 14.1972 19.2983 12.0131 19.1175 9.81467C18.9366 7.61626 17.9204 5.57067 16.2776 4.09854C14.6349 2.62641 12.4906 1.83962 10.2856 1.89996C8.08055 1.9603 5.98246 2.86317 4.42269 4.42294C2.86293 5.9827 1.96005 8.08079 1.89971 10.2858C1.83938 12.4908 2.62617 14.6352 4.0983 16.2779C5.57043 17.9206 7.61601 18.9369 9.81443 19.1177C12.0128 19.2985 14.197 18.6302 15.9178 17.2501L19.4444 20.7768C19.5335 20.8666 19.6395 20.9379 19.7563 20.9865C19.8731 21.0352 19.9983 21.0602 20.1248 21.0602C20.2514 21.0602 20.3766 21.0352 20.4934 20.9865C20.6102 20.9379 20.7162 20.8666 20.8053 20.7768C20.978 20.5981 21.0745 20.3592 21.0745 20.1107C21.0745 19.8622 20.978 19.6234 20.8053 19.4447ZM10.5415 17.2501C9.21473 17.2501 7.91774 16.8567 6.81456 16.1195C5.71138 15.3824 4.85156 14.3347 4.34382 13.1089C3.83608 11.8831 3.70324 10.5343 3.96208 9.23303C4.22092 7.93174 4.85983 6.73643 5.79801 5.79825C6.73618 4.86007 7.93149 4.22117 9.23278 3.96232C10.5341 3.70348 11.8829 3.83633 13.1087 4.34407C14.3345 4.8518 15.3822 5.71163 16.1193 6.81481C16.8564 7.91799 17.2498 9.21498 17.2498 10.5418C17.2498 12.3209 16.5431 14.0272 15.285 15.2853C14.027 16.5433 12.3207 17.2501 10.5415 17.2501Z" fill="#3E4095"/>
</svg>
